<svg width="140" height="44" viewBox="0 0 140 44" fill="none" xmlns="http://www.w3.org/2000/svg">
<path d="M133.605 11.446V7.77699H135.464C135.613 7.77699 135.776 7.82008 135.951 7.90625C136.127 7.98911 136.276 8.11837 136.399 8.29403C136.525 8.46638 136.588 8.68513 136.588 8.95028C136.588 9.21875 136.523 9.44744 136.394 9.63636C136.265 9.82197 136.107 9.96283 135.922 10.0589C135.739 10.1551 135.567 10.2031 135.405 10.2031H134.062V9.60653H135.156C135.265 9.60653 135.383 9.55185 135.509 9.44247C135.638 9.3331 135.703 9.16903 135.703 8.95028C135.703 8.72491 135.638 8.57244 135.509 8.4929C135.383 8.41335 135.272 8.37358 135.176 8.37358H134.41V11.446H133.605ZM135.822 9.71591L136.737 11.446H135.852L134.957 9.71591H135.822ZM134.997 13.6335C134.447 13.6335 133.931 13.5308 133.451 13.3253C132.97 13.1198 132.548 12.8348 132.183 12.4702C131.818 12.1056 131.533 11.683 131.328 11.2024C131.122 10.7218 131.02 10.2064 131.02 9.65625C131.02 9.10606 131.122 8.59067 131.328 8.11008C131.533 7.6295 131.818 7.20691 132.183 6.84233C132.548 6.47775 132.97 6.19271 133.451 5.98722C133.931 5.78172 134.447 5.67898 134.997 5.67898C135.547 5.67898 136.062 5.78172 136.543 5.98722C137.024 6.19271 137.446 6.47775 137.811 6.84233C138.175 7.20691 138.46 7.6295 138.666 8.11008C138.871 8.59067 138.974 9.10606 138.974 9.65625C138.974 10.2064 138.871 10.7218 138.666 11.2024C138.46 11.683 138.175 12.1056 137.811 12.4702C137.446 12.8348 137.024 13.1198 136.543 13.3253C136.062 13.5308 135.547 13.6335 134.997 13.6335ZM134.997 12.679C135.554 12.679 136.061 12.5431 136.518 12.2713C136.976 11.9995 137.34 11.6349 137.612 11.1776C137.884 10.7202 138.02 10.2131 138.02 9.65625C138.02 9.09943 137.884 8.59233 137.612 8.13494C137.34 7.67756 136.976 7.31297 136.518 7.04119C136.061 6.76941 135.554 6.63352 134.997 6.63352C134.44 6.63352 133.933 6.76941 133.476 7.04119C133.018 7.31297 132.654 7.67756 132.382 8.13494C132.11 8.59233 131.974 9.09943 131.974 9.65625C131.974 10.2131 132.11 10.7202 132.382 11.1776C132.654 11.6349 133.018 11.9995 133.476 12.2713C133.933 12.5431 134.44 12.679 134.997 12.679Z" fill="#0789B5" fill-opacity="0.5"/>
<path d="M37.8488 23.508H41.2463C41.2365 22.9152 41.0802 22.4596 40.7785 22.1371C40.4767 21.8165 40.0695 21.6544 39.5559 21.6544C39.0422 21.6544 38.6399 21.8167 38.3499 22.1371C38.0576 22.4596 37.8916 22.9152 37.8488 23.508ZM11.9474 17.5649H10.2706V29.3623H11.5538C13.3018 29.3623 14.584 28.8602 15.4004 27.8582C16.2157 26.8541 16.624 25.3191 16.624 23.2551C16.624 21.3242 16.2382 19.8935 15.4657 18.9609C14.6934 18.0302 13.5206 17.5649 11.9474 17.5649ZM22.296 3.00046H0V44H22.2959C33.749 44 46.9493 37.4891 46.5966 23.5002C46.1436 9.06732 34.9502 2.93868 22.296 3.00046ZM19.6621 31.1772C17.7051 33.0792 14.9531 34.0291 11.4082 34.0291H4.51562V12.9695H11.8888C15.3077 12.9695 17.9474 13.8345 19.8086 15.5626C21.668 17.2907 22.5986 19.7892 22.5986 23.0523C22.5988 26.5684 21.6192 29.2773 19.6621 31.1772ZM33.3575 28.9318H31.5L31.1747 27.81H31.0469C30.7881 28.2174 30.4199 28.534 29.9444 28.7561C29.4677 28.9781 28.9259 29.0882 28.3165 29.0882C27.2745 29.0882 26.4884 28.814 25.9591 28.2618C25.4299 27.7095 25.1651 26.9159 25.1651 25.8792V20.1581H27.587V25.2825C27.587 25.9159 27.7003 26.3909 27.9279 26.7075C28.1555 27.0241 28.5178 27.1825 29.0158 27.1825C29.6925 27.1825 30.1827 26.9584 30.4835 26.5105C30.7852 26.0625 30.9366 25.3211 30.9366 24.2862V20.1581H33.3575V28.9318ZM43.5166 23.9385V25.1009H37.794C37.8204 25.7805 38.0235 26.3115 38.4044 26.6939C38.7862 27.0762 39.3204 27.2654 40.0079 27.2654C40.543 27.2654 41.0479 27.2113 41.5245 27.1013C42.0011 26.9913 42.4981 26.8155 43.0168 26.5761V28.4277C42.5929 28.6363 42.1408 28.7926 41.6594 28.895C41.178 28.9973 40.59 29.0475 39.8976 29.0475C38.4679 29.0475 37.3517 28.6575 36.547 27.8773C35.7423 27.0992 35.341 25.9948 35.341 24.5659C35.341 23.0965 35.7121 21.9593 36.4562 21.156C37.1994 20.3528 38.2277 19.9512 39.5402 19.9512C40.7941 19.9512 41.7708 20.3045 42.469 21.0112C43.168 21.7182 43.5166 22.6932 43.5166 23.9385ZM118.103 21.0983L127.416 10.8437H118.65L110.067 20.9902V10.8437H102.471V36.155H110.067V29.9455L112.916 26.8387L118.906 36.155H128L118.103 21.0983ZM58.3594 26.3695H70.4482V20.5924H58.3594V16.6206H71.6904V10.8436H50.7616V36.1549H72.0556V30.3779H58.3594V26.3695ZM85.3457 17.4703C86.2705 16.893 87.3057 16.6033 88.4502 16.6033C89.4971 16.6033 90.5742 16.9103 91.6826 17.5243C92.79 18.1384 93.7461 18.9743 94.5499 20.0345L98.9327 14.8695C97.6417 13.4985 96.0353 12.4038 94.1115 11.5851C92.1878 10.7665 90.2639 10.3571 88.341 10.3571C85.7355 10.3571 83.3859 10.9228 81.2921 12.0542C79.1974 13.1857 77.5539 14.7439 76.3615 16.7288C75.1681 18.7156 74.5715 20.9361 74.5715 23.3921C74.5715 25.8945 75.1565 28.1575 76.3244 30.179C77.4934 32.2006 79.1066 33.7839 81.1643 34.927C83.2209 36.072 85.5285 36.6435 88.0851 36.6435C90.008 36.6435 91.9504 36.1976 93.9112 35.3073C95.8702 34.4172 97.545 33.224 98.9327 31.7314L94.5499 27.1108C93.6739 28.026 92.6807 28.7482 91.5732 29.2772C90.4649 29.8062 89.4239 30.0708 88.4502 30.0708C87.3057 30.0708 86.2705 29.7773 85.3457 29.1865C84.42 28.5957 83.6895 27.7905 83.1544 26.7671C82.6182 25.7438 82.3506 24.595 82.3506 23.3187C82.3506 22.0443 82.6182 20.8936 83.1544 19.8703C83.6895 18.8489 84.42 18.0475 85.3457 17.4703Z" fill="#0789B5" fill-opacity="0.9"/>
</svg>
